<svg xmlns="http://www.w3.org/2000/svg" viewBox="0 0 400 500">
  <g fill="none" stroke="#948d7a" stroke-width="1">
    <rect x="14" y="14" width="372" height="472" />
    <rect x="22" y="22" width="356" height="456" opacity="0.45" />
  </g>
  <g fill="none" stroke="#948d7a" stroke-width="2">
    <circle cx="200" cy="220" r="110" />
    <ellipse cx="200" cy="220" rx="110" ry="36" />
    <ellipse cx="200" cy="220" rx="36" ry="110" />
    <path d="M158 112 L 242 328" />
  </g>
  <g fill="#948d7a">
    <circle cx="158" cy="112" r="5" />
    <circle cx="242" cy="328" r="5" />
    <circle cx="200" cy="220" r="4" />
  </g>
  <g fill="none" stroke="#948d7a" stroke-width="2">
    <path d="M200 330 L 200 370" />
    <path d="M158 402 Q 200 372 242 402" />
    <rect x="146" y="402" width="108" height="9" />
  </g>
  <g fill="#948d7a" opacity="0.75">
    <path d="M96 96 l 3 8 l 8 3 l -8 3 l -3 8 l -3 -8 l -8 -3 l 8 -3 Z" />
    <path d="M312 150 l 2.5 6.5 l 6.5 2.5 l -6.5 2.5 l -2.5 6.5 l -2.5 -6.5 l -6.5 -2.5 l 6.5 -2.5 Z" />
    <path d="M310 78 l 2 5 l 5 2 l -5 2 l -2 5 l -2 -5 l -5 -2 l 5 -2 Z" />
    <circle cx="84" cy="188" r="2" />
    <circle cx="330" cy="240" r="2" />
    <circle cx="128" cy="66" r="2" />
  </g>
  <text x="200" y="472" text-anchor="middle" font-family="Georgia, 'Times New Roman', serif" font-style="italic" font-size="15" fill="#948d7a">Plate III &#8212; The Sphere</text>
</svg>
