<svg xmlns="http://www.w3.org/2000/svg" viewBox="0 0 400 500">
  <g fill="none" stroke="#948d7a" stroke-width="1">
    <rect x="14" y="14" width="372" height="472" />
    <rect x="22" y="22" width="356" height="456" opacity="0.45" />
  </g>
  <g fill="none" stroke="#948d7a" stroke-width="2">
    <path d="M200 340 C 156 314 112 312 78 328 L 78 196 C 112 180 156 182 200 208 C 244 182 288 180 322 196 L 322 328 C 288 312 244 314 200 340 Z" />
    <path d="M200 208 L 200 340" />
    <path d="M78 328 L 70 338 L 200 356 L 330 338 L 322 328" />
    <path d="M200 356 L 200 340" />
  </g>
  <g fill="none" stroke="#948d7a" stroke-width="1.4" opacity="0.65">
    <path d="M96 216 C 126 204 158 206 188 224" />
    <path d="M96 238 C 126 226 158 228 188 246" />
    <path d="M96 260 C 126 248 158 250 188 268" />
    <path d="M96 282 C 126 270 158 272 188 290" />
    <path d="M96 304 C 126 292 158 294 188 312" />
    <path d="M212 224 C 242 206 274 204 304 216" />
    <path d="M212 246 C 242 228 274 226 304 238" />
    <path d="M212 268 C 242 250 274 248 304 260" />
    <path d="M212 290 C 242 272 274 270 304 282" />
    <path d="M212 312 C 242 294 274 292 304 304" />
  </g>
  <g fill="#948d7a">
    <path d="M200 128 C 194 112 178 106 166 112 C 178 116 186 124 190 136 C 178 132 168 134 162 140 C 174 142 184 148 190 158 C 180 158 172 162 168 170 C 180 168 192 172 200 182 C 208 172 220 168 232 170 C 228 162 220 158 210 158 C 216 148 226 142 238 140 C 232 134 222 132 210 136 C 214 124 222 116 234 112 C 222 106 206 112 200 128 Z" opacity="0.8" />
  </g>
  <text x="200" y="472" text-anchor="middle" font-family="Georgia, 'Times New Roman', serif" font-style="italic" font-size="15" fill="#948d7a">Plate V &#8212; The Book</text>
</svg>
