<svg xmlns="http://www.w3.org/2000/svg" viewBox="0 0 400 500">
  <defs>
    <path id="lf" d="M0 0 C 7 -9 8 -23 0 -36 C -8 -23 -7 -9 0 0 Z" />
  </defs>
  <g fill="none" stroke="#948d7a" stroke-width="1">
    <rect x="14" y="14" width="372" height="472" />
    <rect x="22" y="22" width="356" height="456" opacity="0.45" />
  </g>
  <g fill="none" stroke="#948d7a" stroke-width="2">
    <path d="M264 153 A128 128 0 0 1 264 375" />
    <path d="M136 153 A128 128 0 0 0 136 375" />
  </g>
  <g fill="#948d7a">
    <g transform="rotate(30 200 264)"><use href="#lf" x="200" y="140" /></g>
    <g transform="rotate(45 200 264)"><use href="#lf" x="200" y="140" /></g>
    <g transform="rotate(60 200 264)"><use href="#lf" x="200" y="140" /></g>
    <g transform="rotate(75 200 264)"><use href="#lf" x="200" y="140" /></g>
    <g transform="rotate(90 200 264)"><use href="#lf" x="200" y="140" /></g>
    <g transform="rotate(105 200 264)"><use href="#lf" x="200" y="140" /></g>
    <g transform="rotate(120 200 264)"><use href="#lf" x="200" y="140" /></g>
    <g transform="rotate(135 200 264)"><use href="#lf" x="200" y="140" /></g>
    <g transform="rotate(150 200 264)"><use href="#lf" x="200" y="140" /></g>
    <g transform="rotate(-30 200 264)"><use href="#lf" x="200" y="140" /></g>
    <g transform="rotate(-45 200 264)"><use href="#lf" x="200" y="140" /></g>
    <g transform="rotate(-60 200 264)"><use href="#lf" x="200" y="140" /></g>
    <g transform="rotate(-75 200 264)"><use href="#lf" x="200" y="140" /></g>
    <g transform="rotate(-90 200 264)"><use href="#lf" x="200" y="140" /></g>
    <g transform="rotate(-105 200 264)"><use href="#lf" x="200" y="140" /></g>
    <g transform="rotate(-120 200 264)"><use href="#lf" x="200" y="140" /></g>
    <g transform="rotate(-135 200 264)"><use href="#lf" x="200" y="140" /></g>
    <g transform="rotate(-150 200 264)"><use href="#lf" x="200" y="140" /></g>
    <g transform="rotate(37 200 264)"><circle cx="200" cy="148" r="3.5" /></g>
    <g transform="rotate(67 200 264)"><circle cx="200" cy="148" r="3.5" /></g>
    <g transform="rotate(97 200 264)"><circle cx="200" cy="148" r="3.5" /></g>
    <g transform="rotate(127 200 264)"><circle cx="200" cy="148" r="3.5" /></g>
    <g transform="rotate(-37 200 264)"><circle cx="200" cy="148" r="3.5" /></g>
    <g transform="rotate(-67 200 264)"><circle cx="200" cy="148" r="3.5" /></g>
    <g transform="rotate(-97 200 264)"><circle cx="200" cy="148" r="3.5" /></g>
    <g transform="rotate(-127 200 264)"><circle cx="200" cy="148" r="3.5" /></g>
  </g>
  <g fill="none" stroke="#948d7a" stroke-width="2">
    <path d="M200 396 C 186 384 164 386 160 400 C 156 414 176 422 200 408 C 224 422 244 414 240 400 C 236 386 214 384 200 396 Z" />
    <path d="M192 410 C 184 424 186 436 194 448" />
    <path d="M208 410 C 216 424 214 436 206 448" />
  </g>
  <text x="200" y="472" text-anchor="middle" font-family="Georgia, 'Times New Roman', serif" font-style="italic" font-size="15" fill="#948d7a">Plate I &#8212; The Laurel</text>
</svg>
